HIERARCHY
ROOT Hips
{
  OFFSET 5.80788e-005 67.184 3.4734
  CHANNELS 6 Xposition Yposition Zposition Zrotation Xrotation Yrotation
  JOINT Chest
  {
    OFFSET 0 8.7983 -4.7612
    CHANNELS 3 Zrotation Xrotation Yrotation
    JOINT Chest2
    {
      OFFSET 0 8.0291 0.4195
      CHANNELS 3 Zrotation Xrotation Yrotation
      JOINT Chest3
      {
        OFFSET 0 9.9351 -2.2114
        CHANNELS 3 Zrotation Xrotation Yrotation
        JOINT Neck
        {
          OFFSET 0 22.3885 -0.4656
          CHANNELS 3 Zrotation Xrotation Yrotation
          JOINT Head
          {
            OFFSET -0.0001 12.643 3.4389
            CHANNELS 3 Zrotation Xrotation Yrotation
            End Site
            {
              OFFSET 0.0001 17.6655 0.5274
            }
          }
        }
        JOINT LeftCollar
        {
          OFFSET 2.2603 21.606 7.4023
          CHANNELS 3 Zrotation Xrotation Yrotation
          JOINT LeftShoulder
          {
            OFFSET 13.5163 -1.1332 -5.0146
            CHANNELS 3 Zrotation Xrotation Yrotation
            JOINT LeftElbow
            {
              OFFSET -0.0995 -28.05 -0.2431
              CHANNELS 3 Zrotation Xrotation Yrotation
              JOINT LeftWrist
              {
                OFFSET 0.0679 -23.3996 -0.1402
                CHANNELS 3 Zrotation Xrotation Yrotation
                JOINT LeftFinger1
                {
                  OFFSET 0.7932 -9.069 2.5189
                  CHANNELS 3 Zrotation Xrotation Yrotation
                  JOINT LeftFinger11
                  {
                    OFFSET -0.8272 -3.3923 0.5977
                    CHANNELS 3 Zrotation Xrotation Yrotation
                    JOINT LeftFinger12
                    {
                      OFFSET -0.5649 -2.3158 0.4082
                      CHANNELS 3 Zrotation Xrotation Yrotation
                      End Site
                      {
                        OFFSET -0.4919 -1.6479 0.2673
                      }
                    }
                  }
                }
                JOINT LeftFinger2
                {
                  OFFSET 0.9159 -9.2044 0.2193
                  CHANNELS 3 Zrotation Xrotation Yrotation
                  JOINT LeftFinger21
                  {
                    OFFSET 0.0117 -4.1944 -0.0248
                    CHANNELS 3 Zrotation Xrotation Yrotation
                    JOINT LeftFinger22
                    {
                      OFFSET 0.0071 -2.3249 -0.0142
                      CHANNELS 3 Zrotation Xrotation Yrotation
                      End Site
                      {
                        OFFSET -0.1475 -2.0882 0.0028
                      }
                    }
                  }
                }
                JOINT LeftFinger3
                {
                  OFFSET 0.6113 -8.7231 -2.0637
                  CHANNELS 3 Zrotation Xrotation Yrotation
                  JOINT LeftFinger31
                  {
                    OFFSET -0.1927 -3.8059 -0.2383
                    CHANNELS 3 Zrotation Xrotation Yrotation
                    JOINT LeftFinger32
                    {
                      OFFSET -0.1091 -2.1688 -0.1362
                      CHANNELS 3 Zrotation Xrotation Yrotation
                      End Site
                      {
                        OFFSET -0.2358 -1.9176 -0.0906
                      }
                    }
                  }
                }
                JOINT LeftFinger4
                {
                  OFFSET -0.6151 -8.0947 -3.5641
                  CHANNELS 3 Zrotation Xrotation Yrotation
                  JOINT LeftFinger41
                  {
                    OFFSET -0.4882 -2.341 -0.6462
                    CHANNELS 3 Zrotation Xrotation Yrotation
                    JOINT LeftFinger42
                    {
                      OFFSET -0.3575 -1.7167 -0.4742
                      CHANNELS 3 Zrotation Xrotation Yrotation
                      End Site
                      {
                        OFFSET -0.4187 -1.5237 -0.3496
                      }
                    }
                  }
                }
                JOINT LeftFinger0
                {
                  OFFSET -1.42 -1.8761 1.4223
                  CHANNELS 3 Zrotation Xrotation Yrotation
                  JOINT LeftFinger01
                  {
                    OFFSET -1.1471 -3.4929 2.6334
                    CHANNELS 3 Zrotation Xrotation Yrotation
                    JOINT LeftFinger02
                    {
                      OFFSET -0.823 -2.3 1.6571
                      CHANNELS 3 Zrotation Xrotation Yrotation
                      End Site
                      {
                        OFFSET -0.5822 -1.6914 1.1582
                      }
                    }
                  }
                }
              }
            }
          }
        }
        JOINT RightCollar
        {
          OFFSET -2.2603 21.606 7.4023
          CHANNELS 3 Zrotation Xrotation Yrotation
          JOINT RightShoulder
          {
            OFFSET -13.5187 -1.1334 -5.0155
            CHANNELS 3 Zrotation Xrotation Yrotation
            JOINT RightElbow
            {
              OFFSET 0.0994 -28.0499 -0.2431
              CHANNELS 3 Zrotation Xrotation Yrotation
              JOINT RightWrist
              {
                OFFSET -0.0679 -23.3996 -0.1402
                CHANNELS 3 Zrotation Xrotation Yrotation
                JOINT RightFinger1
                {
                  OFFSET -0.7932 -9.0691 2.5189
                  CHANNELS 3 Zrotation Xrotation Yrotation
                  JOINT RightFinger11
                  {
                    OFFSET 0.8272 -3.3923 0.5977
                    CHANNELS 3 Zrotation Xrotation Yrotation
                    JOINT RightFinger12
                    {
                      OFFSET 0.565 -2.3158 0.4082
                      CHANNELS 3 Zrotation Xrotation Yrotation
                      End Site
                      {
                        OFFSET 0.4919 -1.6479 0.2673
                      }
                    }
                  }
                }
                JOINT RightFinger2
                {
                  OFFSET -0.916 -9.2044 0.2193
                  CHANNELS 3 Zrotation Xrotation Yrotation
                  JOINT RightFinger21
                  {
                    OFFSET -0.0117 -4.1944 -0.0248
                    CHANNELS 3 Zrotation Xrotation Yrotation
                    JOINT RightFinger22
                    {
                      OFFSET -0.0071 -2.3249 -0.0142
                      CHANNELS 3 Zrotation Xrotation Yrotation
                      End Site
                      {
                        OFFSET 0.1475 -2.0882 0.0028
                      }
                    }
                  }
                }
                JOINT RightFinger3
                {
                  OFFSET -0.6113 -8.7231 -2.0637
                  CHANNELS 3 Zrotation Xrotation Yrotation
                  JOINT RightFinger31
                  {
                    OFFSET 0.1927 -3.8059 -0.2383
                    CHANNELS 3 Zrotation Xrotation Yrotation
                    JOINT RightFinger32
                    {
                      OFFSET 0.1091 -2.1688 -0.1362
                      CHANNELS 3 Zrotation Xrotation Yrotation
                      End Site
                      {
                        OFFSET 0.2358 -1.9176 -0.0906
                      }
                    }
                  }
                }
                JOINT RightFinger4
                {
                  OFFSET 0.6151 -8.0947 -3.564
                  CHANNELS 3 Zrotation Xrotation Yrotation
                  JOINT RightFinger41
                  {
                    OFFSET 0.4882 -2.341 -0.6462
                    CHANNELS 3 Zrotation Xrotation Yrotation
                    JOINT RightFinger42
                    {
                      OFFSET 0.3574 -1.7166 -0.4742
                      CHANNELS 3 Zrotation Xrotation Yrotation
                      End Site
                      {
                        OFFSET 0.4187 -1.5237 -0.3496
                      }
                    }
                  }
                }
                JOINT RightFinger0
                {
                  OFFSET 1.4199 -1.8761 1.4221
                  CHANNELS 3 Zrotation Xrotation Yrotation
                  JOINT RightFinger01
                  {
                    OFFSET 1.1472 -3.4929 2.6336
                    CHANNELS 3 Zrotation Xrotation Yrotation
                    JOINT RightFinger02
                    {
                      OFFSET 0.8229 -2.3 1.6571
                      CHANNELS 3 Zrotation Xrotation Yrotation
                      End Site
                      {
                        OFFSET 0.5822 -1.6914 1.1582
                      }
                    }
                  }
                }
              }
            }
          }
        }
      }
    }
  }
  JOINT RightHip
  {
    OFFSET -9.412 3.9771 -0.7758
    CHANNELS 3 Zrotation Xrotation Yrotation
    JOINT RightKnee
    {
      OFFSET -0.7531 -40.938 0
      CHANNELS 3 Zrotation Xrotation Yrotation
      JOINT RightAnkle
      {
        OFFSET 0 -40.1986 0
        CHANNELS 3 Zrotation Xrotation Yrotation
        JOINT RightToe
        {
          OFFSET 0 -4.4182 9.239
          CHANNELS 3 Zrotation Xrotation Yrotation
          End Site
          {
            OFFSET 0 0 6.1981
          }
        }
      }
    }
  }
  JOINT LeftHip
  {
    OFFSET 9.4119 3.9773 -0.7758
    CHANNELS 3 Zrotation Xrotation Yrotation
    JOINT LeftKnee
    {
      OFFSET 0.7532 -40.9383 0
      CHANNELS 3 Zrotation Xrotation Yrotation
      JOINT LeftAnkle
      {
        OFFSET 0 -40.1986 0
        CHANNELS 3 Zrotation Xrotation Yrotation
        JOINT LeftToe
        {
          OFFSET 0 -4.4182 9.239
          CHANNELS 3 Zrotation Xrotation Yrotation
          End Site
          {
            OFFSET 0 0 6.1981
          }
        }
      }
    }
  }
}
MOTION
Frames:	6
Frame Time:	0.0333333
5.80788e-005 67.184 3.4734 0 0 -0 0 0 -0 0 0 -0 0 0 -0 0 0 -0 0 0 -0 0 0 -12.5014 88.1196 14.2451 10.6914 -0.00160068 -0.00239207 0.000740045 -8.4365e-005 7.00714e-005 -9.52055e-007 9.93923e-017 -1.98785e-016 -1.59028e-015 9.93923e-017 -5.96354e-016 -1.59028e-015 -9.93923e-017 -5.96354e-016 -1.59028e-015 9.93923e-017 -1.98785e-016 -1.59028e-015 -0.0128176 0.00232552 8.52707e-005 9.93923e-017 5.96354e-016 -0 9.93923e-017 -1.98785e-016 -1.59028e-015 -0.0160551 0.00299681 0.000857156 -2.48481e-016 0 3.18055e-015 9.93923e-017 -1.98785e-016 -1.59028e-015 -0.0125865 0.0031206 0.00282719 0 1.98785e-016 -0 9.93923e-017 -1.98785e-016 -1.59028e-015 9.93923e-017 -5.96354e-016 -1.59028e-015 -9.93923e-017 -5.96354e-016 -1.59028e-015 -0.865644 0.16582 7.03859 -88.0329 10.2057 -10.5567 0.0015593 -0.00248883 -0.000788628 7.87605e-005 4.10553e-005 1.24965e-005 -3.97569e-016 -7.95139e-016 3.18055e-015 -1.98785e-016 -3.97569e-016 3.18055e-015 -1.98785e-016 0 3.18055e-015 -3.97569e-016 -7.95139e-016 3.18055e-015 0.0129473 0.00231697 -8.70038e-005 9.93923e-017 -7.95139e-016 1.59028e-015 -3.97569e-016 -7.95139e-016 3.18055e-015 0.0163314 0.00303369 -0.000872333 3.97569e-016 7.95139e-016 -3.18055e-015 -3.97569e-016 -7.95139e-016 3.18055e-015 0.0145763 0.00367772 -0.00326275 9.93923e-017 -3.97569e-016 -0 -3.97569e-016 -7.95139e-016 3.18055e-015 -1.98785e-016 -3.97569e-016 3.18055e-015 -1.98785e-016 0 3.18055e-015 3.42485 1.36937 -0.0640303 0.000136572 0.69354 0.00145564 -3.42573 -2.06297 -0.0607933 -3.19502e-024 0 -1.48106e-024 -3.42498 1.36123 0.0639712 -6.769e-005 0.712612 -0.0012277 3.42582 -2.07388 0.0612819 2.55305e-023 0 -2.31416e-026 
-0.522732 62.907 5.04086 1.8674e-007 0.0656679 -4.82926e-008 -0.387191 -1.49415 2.40323 -0.711711 -3.00321 4.79878 -0.71171 -3.00321 4.79878 10.3682 0.0328541 -0.00815441 -4.66728e-006 -0.249096 1.69237e-006 33.7641 -4.0089 -29.3691 39.7604 -1.96074 17.5956 -129.795 -77.1064 -96.7404 -21.8854 4.03937 0.0649803 1.83135e-007 -3.54223e-006 -1.05642e-005 -3.18055e-015 1.59028e-015 9.54166e-015 1.05814e-005 4.65076e-006 8.3382e-006 1.83135e-007 -3.54223e-006 -1.05642e-005 -0.0128481 0.0023255 8.6226e-005 7.06225e-031 3.18055e-015 -1.27222e-014 1.83135e-007 -3.54223e-006 -1.05642e-005 -0.016141 0.00301372 0.000862547 -6.36111e-015 -1.59028e-015 1.59028e-015 1.83135e-007 -3.54223e-006 -1.05642e-005 -0.0126273 0.0031331 0.00283691 2.69299e-006 1.95493e-006 -8.57286e-007 1.83135e-007 -3.54223e-006 -1.05642e-005 -3.18055e-015 1.59028e-015 9.54166e-015 1.05814e-005 4.65076e-006 8.3382e-006 10.8656 0.313148 18.1765 -44.5332 -4.19648 -15.5671 3.2001 -44.4503 1.85648 41.2257 12.1853 -7.58415 3.18055e-015 0 9.54166e-015 1.05934e-030 -6.36111e-015 9.54166e-015 -6.36111e-015 3.18055e-015 -6.36111e-015 3.18055e-015 0 9.54166e-015 0.0129231 0.00230073 -8.07019e-005 -5.09957e-007 -2.65403e-006 2.65703e-006 3.18055e-015 0 9.54166e-015 0.016313 0.00302298 -0.000873534 1.31239e-006 1.381e-006 2.2926e-006 3.18055e-015 0 9.54166e-015 0.014571 0.00368441 -0.00326199 1.0705e-005 -1.84578e-005 1.72179e-005 3.18055e-015 0 9.54166e-015 1.05934e-030 -6.36111e-015 9.54166e-015 -6.36111e-015 3.18055e-015 -6.36111e-015 -11.6693 -14.3164 -10.1877 -0.24804 27.3065 0.533105 15.1647 -9.8927 -0.851276 1.64308e-015 -1.11816e-016 -6.36111e-015 3.85642 -17.674 10.2865 2.05898 37.2513 -1.63563 -8.85844 -18.6921 0.954935 -8.62684e-009 -1.62093e-007 -8.32822e-007 
-0.762103 60.92 5.81882 3.43252e-007 -0.2298 -7.17783e-008 -0.562177 -2.0045 3.48568 -1.00222 -4.03942 6.958 -1.00222 -4.03943 6.95802 15.0339 -0.115054 0.0287736 5.44549e-006 -0.327095 5.12696e-006 48.3037 -5.74665 -36.7868 19.434 -11.258 19.0617 161.509 -42.1436 -151.366 -31.6907 5.58379 0.692431 4.77083e-015 -1.59028e-015 -6.36111e-015 -0 0 6.36111e-015 3.18055e-015 -1.59028e-015 -3.18055e-015 4.77083e-015 -1.59028e-015 -6.36111e-015 -0.0128906 0.00233431 9.15519e-005 -1.59028e-015 3.18055e-015 1.27222e-014 4.77083e-015 -1.59028e-015 -6.36111e-015 -0.0161212 0.00300738 0.000862953 3.53113e-031 6.36111e-015 -3.18055e-015 4.77083e-015 -1.59028e-015 -6.36111e-015 -0.0125812 0.00311863 0.00282743 1.59028e-015 -4.77083e-015 -3.18055e-015 4.77083e-015 -1.59028e-015 -6.36111e-015 -0 0 6.36111e-015 3.18055e-015 -1.59028e-015 -3.18055e-015 15.8983 -0.126032 23.1819 -25.4263 -11.705 -17.0535 11.5964 -63.8567 10.416 60.3316 17.2192 -12.9682 1.59028e-015 -1.78906e-015 1.59028e-015 3.18055e-015 -1.39149e-015 -0 7.95139e-016 4.96962e-015 1.59028e-015 1.59028e-015 -1.78906e-015 1.59028e-015 0.0129547 0.00230168 -8.52717e-005 4.5169e-006 -1.38972e-005 -1.69301e-006 1.59028e-015 -1.78906e-015 1.59028e-015 0.0163231 0.00304121 -0.000884304 -3.18055e-015 -9.64106e-015 7.95139e-016 1.59028e-015 -1.78906e-015 1.59028e-015 0.0146552 0.00367875 -0.00328118 7.49367e-006 -1.47864e-005 -4.08408e-006 1.59028e-015 -1.78906e-015 1.59028e-015 3.18055e-015 -1.39149e-015 -0 7.95139e-016 4.96962e-015 1.59028e-015 -20.1797 -20.5898 -15.2203 -0.673386 38.7612 0.907057 23.5577 -13.1705 -1.09691 3.45923e-007 1.56774e-007 -1.64077e-006 9.25728 -25.1291 15.6928 4.25425 52.6578 -3.21429 -14.2744 -25.7297 1.45389 1.62254e-006 6.00189e-008 -1.57619e-006 
-0.708741 61.2715 5.80921 8.24436e-010 -0.886494 5.3287e-008 -0.484507 -1.59849 3.24933 -0.878075 -3.22183 6.48886 -0.878076 -3.22184 6.48887 13.9974 -0.443721 0.110533 9.38024e-007 -0.233986 5.29503e-006 45.3549 -5.872 -34.6142 24.2366 -9.09281 18.9637 167.474 -51.2526 -148.456 -29.32 4.79938 0.75573 1.1524e-005 -1.44212e-005 3.96987e-006 -1.48449e-005 1.48542e-005 2.90992e-006 -1.59028e-015 -1.59028e-015 -9.54166e-015 1.1524e-005 -1.44212e-005 3.96987e-006 -0.0127933 0.00233117 8.5185e-005 1.59028e-015 -7.95139e-015 3.18055e-015 1.1524e-005 -1.44212e-005 3.96987e-006 -0.0159257 0.00297756 0.000850421 -1.59028e-015 -3.18055e-015 -0 1.1524e-005 -1.44212e-005 3.96987e-006 -0.0125573 0.00312677 0.00281342 1.59028e-015 1.59028e-015 -3.18055e-015 1.1524e-005 -1.44212e-005 3.96987e-006 -1.48449e-005 1.48542e-005 2.90992e-006 -1.59028e-015 -1.59028e-015 -9.54166e-015 14.2694 -1.13714 22.0555 -29.3711 -10.0959 -16.675 8.97002 -59.7782 7.692 56.1692 16.3145 -12.0943 1.59028e-015 -7.95139e-015 -0 3.18055e-015 -1.19271e-014 -0 3.18055e-015 -1.43125e-014 -3.18055e-015 1.59028e-015 -7.95139e-015 -0 0.012951 0.00230893 -8.8711e-005 -4.41391e-032 1.59028e-015 1.59028e-015 1.59028e-015 -7.95139e-015 -0 0.0162969 0.00302397 -0.000876365 6.95894e-006 -1.89692e-005 5.48948e-006 1.59028e-015 -7.95139e-015 -0 0.0146178 0.00368396 -0.00326904 -4.37398e-006 9.94375e-006 -1.82175e-007 1.59028e-015 -7.95139e-015 -0 3.18055e-015 -1.19271e-014 -0 3.18055e-015 -1.43125e-014 -3.18055e-015 -18.1998 -18.6511 -13.9557 -0.654018 36.6373 0.86821 21.7678 -12.6649 -0.819194 -6.42842e-007 -7.57141e-009 -1.23424e-006 7.93287 -22.8511 14.3851 3.75646 49.5566 -2.84556 -13.1553 -24.3929 1.20886 -5.4382e-008 -2.06367e-007 -1.61521e-006 
-0.708892 61.1988 5.94241 -1.26815e-007 -1.47797 -9.02438e-008 -0.454439 -1.35709 3.25207 -0.831468 -2.73774 6.49604 -0.831469 -2.73775 6.49606 13.9975 -0.739827 0.184461 -3.12113e-006 -0.171983 4.82976e-006 45.5553 -6.26899 -34.1867 24.4987 -9.06384 19.0606 167.205 -51.3601 -148.659 -29.1642 4.43163 0.943352 3.18055e-015 3.18055e-015 -0 1.59028e-015 4.77083e-015 -6.36111e-015 8.82781e-032 -1.59028e-015 3.18055e-015 3.18055e-015 3.18055e-015 -0 -0.012752 0.0023105 8.29277e-005 -4.41391e-031 1.59028e-015 1.59028e-014 3.18055e-015 3.18055e-015 -0 -0.0160433 0.00299271 0.000863389 1.14895e-006 1.58527e-006 -9.65958e-006 3.18055e-015 3.18055e-015 -0 -0.012541 0.00310827 0.00281282 1.59028e-015 -3.18055e-015 6.36111e-015 3.18055e-015 3.18055e-015 -0 1.59028e-015 4.77083e-015 -6.36111e-015 8.82781e-032 -1.59028e-015 3.18055e-015 13.8551 -2.04513 22.0361 -29.1384 -10.1732 -16.594 9.2568 -59.882 7.94842 56.2752 16.4408 -12.4338 1.59028e-015 -2.78299e-015 3.18055e-015 1.59028e-015 0 -0 1.59028e-015 -1.98785e-015 -0 1.59028e-015 -2.78299e-015 3.18055e-015 0.0129146 0.00233303 -0.000101264 -1.59028e-015 -3.18055e-015 -1.59028e-015 1.59028e-015 -2.78299e-015 3.18055e-015 0.0163596 0.00305265 -0.000875998 -1.59028e-015 -4.77083e-015 -0 1.59028e-015 -2.78299e-015 3.18055e-015 0.0144912 0.00369022 -0.00325419 1.59028e-015 6.36111e-015 1.59028e-015 1.59028e-015 -2.78299e-015 3.18055e-015 1.59028e-015 0 -0 1.59028e-015 -1.98785e-015 -0 -18.2014 -18.1792 -13.8712 -0.739568 36.9581 0.917127 21.8325 -12.8362 -0.640047 -3.97569e-016 -5.96354e-016 -3.18055e-015 7.93499 -22.313 14.3548 3.84688 49.7995 -2.91316 -13.2146 -24.571 1.11005 5.76476e-015 -2.24587e-011 6.36111e-015 
-0.709038 61.1269 6.07527 1.37695e-007 -2.06979 -6.63335e-008 -0.4243 -1.1151 3.25448 -0.784812 -2.25248 6.5025 -0.784813 -2.25248 6.50251 13.9982 -1.03611 0.258291 -3.22474e-006 -0.109979 7.96264e-006 45.759 -6.66477 -33.7574 24.7606 -9.03436 19.1573 166.935 -51.4668 -148.863 -29.0071 4.06429 1.13194 1.01246e-006 1.00584e-006 5.04495e-006 -3.18055e-015 3.02153e-014 9.54166e-015 3.16914e-006 2.37412e-006 4.30258e-007 1.01246e-006 1.00584e-006 5.04495e-006 -0.0128673 0.00233853 8.38495e-005 -3.16939e-006 -3.07977e-006 -4.30386e-007 1.01246e-006 1.00584e-006 5.04495e-006 -0.0160063 0.00299184 0.000856731 1.16702e-006 2.74446e-006 -2.26151e-006 1.01246e-006 1.00584e-006 5.04495e-006 -0.0124669 0.00310376 0.00278675 -2.11868e-030 -6.36111e-015 -1.90833e-014 1.01246e-006 1.00584e-006 5.04495e-006 -3.18055e-015 3.02153e-014 9.54166e-015 3.16914e-006 2.37412e-006 4.30258e-007 13.4397 -2.95442 22.0099 -28.9061 -10.2505 -16.5127 9.54573 -59.9847 8.20656 56.3821 16.5665 -12.7739 -1.59028e-015 1.19271e-014 -4.77083e-015 6.89408e-007 7.44543e-006 2.87711e-006 3.18055e-015 7.15625e-015 -0 -1.59028e-015 1.19271e-014 -4.77083e-015 0.0129225 0.00233146 -8.13991e-005 1.59028e-015 3.97569e-016 -0 -1.59028e-015 1.19271e-014 -4.77083e-015 0.016278 0.00301461 -0.0008804 -1.59028e-015 9.93923e-015 -0 -1.59028e-015 1.19271e-014 -4.77083e-015 0.014572 0.00367692 -0.00325616 1.59028e-015 -1.59028e-015 -1.59028e-015 -1.59028e-015 1.19271e-014 -4.77083e-015 6.89408e-007 7.44543e-006 2.87711e-006 3.18055e-015 7.15625e-015 -0 -18.204 -17.707 -13.787 -0.825723 37.2788 0.966787 21.8978 -13.0072 -0.460601 -2.38542e-015 2.25158e-007 -9.54166e-015 7.93743 -21.7751 14.3245 3.93843 50.0427 -2.98173 -13.2744 -24.7489 1.01089 -1.08645e-007 4.87603e-007 -3.23051e-006 
